HIERARCHY
ROOT Hips
{
	OFFSET 54.706501 -35.627014 91.551392
	CHANNELS 6 Xposition Yposition Zposition Xrotation Yrotation Zrotation
	JOINT spine
	{
		OFFSET 0.000000 -0.393700 6.846367
		CHANNELS 3 Xrotation Yrotation Zrotation
		JOINT spine1
		{
			OFFSET 0.000000 -0.000004 9.496208
			CHANNELS 3 Xrotation Yrotation Zrotation
			JOINT spine2
			{
				OFFSET 0.000000 0.000000 9.099091
				CHANNELS 3 Xrotation Yrotation Zrotation
				JOINT Neck
				{
					OFFSET 0.000000 -1.113785 23.361206
					CHANNELS 3 Xrotation Yrotation Zrotation
					JOINT Head
					{
						OFFSET 0.000000 0.000000 7.058014
						CHANNELS 3 Xrotation Yrotation Zrotation
						End Site
						{
							OFFSET 0.000000 5.634176 17.084396
						}
					}
				}
				JOINT RightShoulder
				{
					OFFSET -3.831360 0.533489 9.826309
					CHANNELS 3 Xrotation Yrotation Zrotation
					JOINT RightArm
					{
						OFFSET 0.000000 -0.000004 12.888107
						CHANNELS 3 Xrotation Yrotation Zrotation
						JOINT RightArmRoll
						{
							OFFSET 0.000000 0.000000 6.506165
							CHANNELS 3 Xrotation Yrotation Zrotation
							JOINT RightForeArm
							{
								OFFSET 0.000000 -0.000004 18.950104
								CHANNELS 3 Xrotation Yrotation Zrotation
								JOINT RightForeArmRoll
								{
									OFFSET 0.000000 0.000000 7.300934
									CHANNELS 3 Xrotation Yrotation Zrotation
									JOINT RightHand
									{
										OFFSET 0.000000 -0.000004 14.651398
										CHANNELS 3 Xrotation Yrotation Zrotation
										End Site
										{
											OFFSET 0.000000 0.000000 0.100006
										}
									}
								}
							}
						}
					}
				}
				JOINT LeftShoulder
				{
					OFFSET 3.831360 0.533489 9.826309
					CHANNELS 3 Xrotation Yrotation Zrotation
					JOINT LeftArm
					{
						OFFSET 0.000000 -0.000004 12.888107
						CHANNELS 3 Xrotation Yrotation Zrotation
						JOINT LeftArmRoll
						{
							OFFSET 0.000000 0.000000 6.506165
							CHANNELS 3 Xrotation Yrotation Zrotation
							JOINT LeftForeArm
							{
								OFFSET 0.000000 -0.000004 18.950104
								CHANNELS 3 Xrotation Yrotation Zrotation
								JOINT LeftForeArmRoll
								{
									OFFSET 0.000000 0.000000 7.300934
									CHANNELS 3 Xrotation Yrotation Zrotation
									JOINT LeftHand
									{
										OFFSET 0.000000 -0.000004 14.651398
										CHANNELS 3 Xrotation Yrotation Zrotation
										End Site
										{
											OFFSET 0.000000 0.000000 0.100006
										}
									}
								}
							}
						}
					}
				}
			}
		}
	}
	JOINT RightUpLeg
	{
		OFFSET -6.068371 0.933475 -1.112778
		CHANNELS 3 Xrotation Yrotation Zrotation
		JOINT RightUpLegRoll
		{
			OFFSET 0.000000 -0.000004 17.179604
			CHANNELS 3 Xrotation Yrotation Zrotation
			JOINT RightLeg
			{
				OFFSET 0.000000 0.000004 -21.274300
				CHANNELS 3 Xrotation Yrotation Zrotation
				JOINT RightLegRoll
				{
					OFFSET 0.000000 -0.000004 21.343903
					CHANNELS 3 Xrotation Yrotation Zrotation
					JOINT RightFoot
					{
						OFFSET 0.000000 0.000000 17.765198
						CHANNELS 3 Xrotation Yrotation Zrotation
						JOINT RightToeBase
						{
							OFFSET 0.000000 -0.000004 14.850815
							CHANNELS 3 Xrotation Yrotation Zrotation
							End Site
							{
								OFFSET 0.006294 0.829006 7.192139
							}
						}
					}
				}
			}
		}
	}
	JOINT LeftUpLeg
	{
		OFFSET 6.068371 0.933475 -1.112778
		CHANNELS 3 Xrotation Yrotation Zrotation
		JOINT LeftUpLegRoll
		{
			OFFSET 0.000000 -0.000004 17.179703
			CHANNELS 3 Xrotation Yrotation Zrotation
			JOINT LeftLeg
			{
				OFFSET 0.000000 -0.000004 21.274200
				CHANNELS 3 Xrotation Yrotation Zrotation
				JOINT LeftLegRoll
				{
					OFFSET 0.000000 0.000000 21.541199
					CHANNELS 3 Xrotation Yrotation Zrotation
					JOINT LeftFoot
					{
						OFFSET 0.000000 -0.000004 17.567902
						CHANNELS 3 Xrotation Yrotation Zrotation
						JOINT LeftToeBase
						{
							OFFSET 0.000000 -0.000004 14.850800
							CHANNELS 3 Xrotation Yrotation Zrotation
							End Site
							{
								OFFSET -0.028210 0.829006 7.192139
							}
						}
					}
				}
			}
		}
	}
}
MOTION
Frames: 7
Frame Time: 0.041667
52.654198 -11.025427 79.208603 33.909041 1.433199 -4.215938 1.133124 -0.445411 0.459385 6.272678 -0.876283 0.932029 7.917726 -0.865056 0.942350 -13.413235 10.000941 3.023959 0.588765 -8.380351 0.735913 6.886490 -55.442964 8.666531 -63.142305 -137.007844 -84.388162 0.000000 -0.000001 -0.000005 25.108366 -23.452303 5.642695 -0.000007 0.000000 -2.999982 -4.999906 -7.998887 0.000026 -4.255236 53.229396 4.416602 -60.012467 153.457986 59.312065 -0.000000 0.000000 0.000003 0.147325 18.985848 3.729927 0.000001 -0.000003 3.356203 -5.000255 7.999193 -0.000193 -78.444395 -182.280141 -1.520350 179.999991 -0.000005 -0.482002 134.754277 -3.323461 -2.901403 0.000003 0.000001 0.765811 67.792202 6.966887 2.022164 25.456858 -7.355621 -0.000009 -78.442797 164.942279 0.423637 -0.000005 -0.000004 -0.367451 -51.189051 6.372455 4.804822 -0.000008 -0.000002 -0.657262 70.147006 -6.954311 -1.877586 25.456957 7.355614 -0.000003 
52.648300 -11.127815 79.310600 33.773732 1.441904 -4.197041 1.130795 -0.445670 0.457651 6.268068 -0.876117 0.928298 7.913121 -0.864935 0.938664 -13.403001 9.877611 2.997307 0.612275 -8.277265 0.740250 7.021385 -55.575460 8.803806 -63.236541 -137.032173 -84.207169 -0.000000 -0.000001 -0.000004 24.639825 -23.471788 5.543765 -0.000006 0.000000 -2.999980 -4.999908 -7.998886 0.000029 -4.137751 53.358421 4.286870 -60.103165 153.455363 58.946261 -0.000000 0.000000 0.000001 0.143596 18.538848 3.701472 0.000002 -0.000003 3.358142 -5.000254 7.999192 -0.000193 -78.135267 -182.289020 -1.535088 179.999991 -0.000005 -0.482999 134.921371 -3.312651 -2.886201 0.000003 0.000001 0.762411 67.778201 6.965748 2.025824 25.456860 -7.355621 -0.000010 -78.119879 164.944041 0.390800 -0.000006 -0.000004 -0.370219 -51.005083 6.389892 4.793374 -0.000008 -0.000002 -0.654213 70.138352 -6.953225 -1.881039 25.456957 7.355615 -0.000003 
52.635998 -11.211416 79.396286 33.638818 1.450657 -4.178638 1.128475 -0.446138 0.456169 6.263490 -0.876500 0.925122 7.908551 -0.865357 0.935528 -13.401979 9.759266 2.971724 0.646837 -8.177177 0.744315 7.150517 -55.701648 8.935114 -63.321386 -137.057649 -84.012652 -0.000000 -0.000001 -0.000008 24.187481 -23.482026 5.444215 -0.000007 -0.000001 -2.999984 -4.999908 -7.998887 0.000031 -4.023012 53.486221 4.160440 -60.190632 153.449134 58.592928 0.000000 0.000001 0.000003 0.140064 18.111152 3.672957 0.000001 -0.000004 3.359981 -5.000256 7.999190 -0.000193 -77.827390 -182.298569 -1.549215 179.999991 -0.000005 -0.483996 135.087017 -3.302332 -2.872883 0.000003 0.000000 0.759006 67.764438 6.964698 2.029288 25.456856 -7.355621 -0.000010 -77.798252 164.946009 0.359045 -0.000008 -0.000004 -0.372928 -50.822157 6.406804 4.781567 -0.000008 -0.000002 -0.651163 70.130135 -6.952178 -1.884368 25.456957 7.355614 -0.000003 
52.615997 -11.296724 79.479889 33.504506 1.459429 -4.160785 1.126209 -0.446853 0.454981 6.258949 -0.877528 0.922592 7.904008 -0.866416 0.933039 -13.410926 9.647302 2.947328 0.693438 -8.081246 0.747936 7.272394 -55.820848 9.058800 -63.396559 -137.083932 -83.803621 0.000000 -0.000001 -0.000002 23.753743 -23.481914 5.344223 -0.000008 0.000003 -2.999979 -4.999911 -7.998886 0.000028 -3.911381 53.612815 4.037724 -60.274357 153.438888 58.253242 0.000000 0.000000 0.000003 0.136749 17.705254 3.644996 0.000001 0.000000 3.361732 -5.000256 7.999190 -0.000192 -77.521097 -182.308541 -1.563525 179.999991 -0.000005 -0.485007 135.251201 -3.291068 -2.858028 0.000003 0.000001 0.755595 67.750989 6.963634 2.032926 25.456860 -7.355621 -0.000010 -77.478128 164.948167 0.328505 -0.000005 -0.000003 -0.375564 -50.640173 6.423264 4.769427 -0.000007 -0.000002 -0.648106 70.122567 -6.951173 -1.887666 25.456952 7.355613 -0.000003 
52.545395 -11.411417 79.586693 33.369586 1.468206 -4.142810 1.124159 -0.447722 0.453984 6.254837 -0.878991 0.920493 7.899911 -0.867905 0.930978 -13.433020 9.535862 2.923149 0.755556 -7.983753 0.751354 7.388551 -55.933375 9.176602 -63.462887 -137.111772 -83.581428 0.000000 -0.000001 -0.000009 23.337213 -23.470702 5.243876 -0.000006 -0.000004 -2.999982 -4.999910 -7.998887 0.000028 -3.802505 53.736896 3.918256 -60.355424 153.426976 57.926418 0.000000 0.000000 0.000001 0.133613 17.317859 3.615397 0.000001 -0.000005 3.363382 -5.000254 7.999189 -0.000192 -77.214824 -182.318294 -1.578361 179.999991 -0.000005 -0.486004 135.414374 -3.279605 -2.843322 0.000003 0.000001 0.752182 67.737930 6.962526 2.036534 25.456858 -7.355622 -0.000010 -77.157464 164.951199 0.298175 -0.000007 -0.000005 -0.378163 -50.458111 6.439086 4.756750 -0.000008 -0.000002 -0.645048 70.115464 -6.950247 -1.890847 25.456952 7.355613 -0.000002 
52.536301 -11.494228 79.669800 33.233177 1.477038 -4.124180 1.122441 -0.448638 0.453053 6.251438 -0.880631 0.918560 7.896507 -0.869569 0.929078 -13.469038 9.419073 2.898117 0.834606 -7.879106 0.754821 7.501853 -56.040971 9.291708 -63.525568 -137.139967 -83.354372 0.000000 -0.000001 -0.000006 22.934604 -23.449224 5.143605 -0.000006 0.000001 -2.999982 -4.999907 -7.998888 0.000030 -3.695743 53.857503 3.801255 -60.434415 153.416963 57.608821 0.000000 0.000000 0.000003 0.130595 16.943360 3.581861 0.000002 -0.000002 3.364942 -5.000254 7.999190 -0.000190 -76.907138 -182.327720 -1.592453 179.999991 -0.000005 -0.487001 135.577206 -3.268695 -2.829423 0.000003 0.000001 0.748771 67.725130 6.961507 2.039940 25.456861 -7.355621 -0.000010 -76.835093 164.955243 0.268723 -0.000003 -0.000005 -0.380751 -50.274765 6.454497 4.743690 -0.000008 -0.000002 -0.641998 70.108682 -6.949355 -1.893815 25.456953 7.355613 -0.000002 
52.576694 -11.566223 79.732002 33.095661 1.485935 -4.105108 1.121010 -0.449614 0.452198 6.248558 -0.882463 0.916811 7.893623 -0.871421 0.927360 -13.517308 9.298235 2.872402 0.928426 -7.768754 0.758200 7.612521 -56.143742 9.404321 -63.585544 -137.168135 -83.124372 0.000001 -0.000001 -0.000008 22.545175 -23.418545 5.043829 -0.000006 -0.000002 -2.999981 -4.999909 -7.998885 0.000031 -3.591065 53.975051 3.686714 -60.511275 153.408043 57.300185 -0.000000 0.000000 0.000003 0.127693 16.581362 3.544827 0.000001 -0.000004 3.366394 -5.000255 7.999190 -0.000193 -76.598447 -182.336927 -1.606788 179.999991 -0.000005 -0.487998 135.739683 -3.256912 -2.814938 0.000003 0.000001 0.745360 67.712528 6.960466 2.043432 25.456856 -7.355622 -0.000010 -76.511656 164.959928 0.240305 -0.000002 -0.000005 -0.383329 -50.090452 6.469437 4.730218 -0.000008 -0.000002 -0.638957 70.102227 -6.948474 -1.896765 25.456957 7.355615 -0.000002 
